<svg width="36" height="20" viewBox="0 0 36 30" fill="none" xmlns="http://www.w3.org/2000/svg">
<path d="M2.04881 13.8912C1.98845 13.6492 1.98401 13.3966 2.03584 13.1526C2.08766 12.9086 2.19438 12.6797 2.3479 12.4831C2.50142 12.2865 2.6977 12.1275 2.92185 12.0181C3.146 11.9088 3.39212 11.8519 3.64153 11.8518H32.2778C32.5272 11.8519 32.7733 11.9088 32.9974 12.0181C33.2216 12.1275 33.4179 12.2865 33.5714 12.4831C33.7249 12.6797 33.8316 12.9086 33.8835 13.1526C33.9353 13.3966 33.9308 13.6492 33.8705 13.8912L30.8969 25.7841C30.7193 26.4945 30.3093 27.1252 29.7321 27.5759C29.155 28.0267 28.4437 28.2716 27.7114 28.2717H8.20789C7.47558 28.2716 6.76432 28.0267 6.18715 27.5759C5.60998 27.1252 5.20003 26.4945 5.02244 25.7841L2.04881 13.8928V13.8912Z" stroke="white" stroke-width="2.9575" stroke-linejoin="round"/>
<path d="M13.0314 18.4199V21.7038V18.4199ZM22.8833 18.4199V21.7038V18.4199ZM8.10547 11.8519L14.6734 2L8.10547 11.8519ZM27.8093 11.8519L21.2414 2L27.8093 11.8519Z" fill="white"/>
<path d="M13.0314 18.4199V21.7038M22.8833 18.4199V21.7038M8.10547 11.8519L14.6734 2M27.8093 11.8519L21.2414 2" stroke="white" stroke-width="2.9575" stroke-linecap="round"/>
</svg>
