<svg width="23" height="27" viewBox="0 0 23 27" fill="none" xmlns="http://www.w3.org/2000/svg">
<path d="M21.2 11.6C21.2 18.4571 11.6 24.8571 11.6 24.8571C11.6 24.8571 2 18.4571 2 11.6C2 9.05392 3.01143 6.61212 4.81177 4.81178C6.61212 3.01143 9.05392 2 11.6 2C14.1461 2 16.5879 3.01143 18.3882 4.81178C20.1886 6.61212 21.2 9.05392 21.2 11.6V11.6Z" stroke="white" stroke-width="2.74286" stroke-linecap="round" stroke-linejoin="round"/>
<path d="M11.6002 13.8857C12.8625 13.8857 13.8859 12.8624 13.8859 11.6C13.8859 10.3376 12.8625 9.3143 11.6002 9.3143C10.3378 9.3143 9.31445 10.3376 9.31445 11.6C9.31445 12.8624 10.3378 13.8857 11.6002 13.8857Z" fill="white" stroke="white" stroke-width="2.74286" stroke-linecap="round" stroke-linejoin="round"/>
</svg>
