<svg width="18" height="29" viewBox="0 0 18 29" fill="none" xmlns="http://www.w3.org/2000/svg">
<path d="M16 12.0417V15.0417C16 16.8982 15.2625 18.6787 13.9497 19.9914C12.637 21.3042 10.8565 22.0417 9 22.0417C7.14348 22.0417 5.36301 21.3042 4.05025 19.9914C2.7375 18.6787 2 16.8982 2 15.0417V12.0417H0V15.0417C0.00105047 17.2547 0.817454 19.3898 2.29322 21.039C3.76899 22.6882 5.80064 23.7358 8 23.9817V26.0417H4V28.0417H14V26.0417H10V23.9817C12.1994 23.7358 14.231 22.6882 15.7068 21.039C17.1825 19.3898 17.9989 17.2547 18 15.0417V12.0417H16Z" fill="#47A0AC"/>
<path d="M9 20.0417C10.3261 20.0417 11.5979 19.5149 12.5355 18.5772C13.4732 17.6395 14 16.3678 14 15.0417V5.04169C14 3.7156 13.4732 2.44384 12.5355 1.50615C11.5979 0.568471 10.3261 0.041687 9 0.041687C7.67392 0.041687 6.40215 0.568471 5.46447 1.50615C4.52678 2.44384 4 3.7156 4 5.04169V15.0417C4 16.3678 4.52678 17.6395 5.46447 18.5772C6.40215 19.5149 7.67392 20.0417 9 20.0417ZM6 5.04169C6 4.24604 6.31607 3.48298 6.87868 2.92037C7.44129 2.35776 8.20435 2.04169 9 2.04169C9.79565 2.04169 10.5587 2.35776 11.1213 2.92037C11.6839 3.48298 12 4.24604 12 5.04169V15.0417C12 15.8373 11.6839 16.6004 11.1213 17.163C10.5587 17.7256 9.79565 18.0417 9 18.0417C8.20435 18.0417 7.44129 17.7256 6.87868 17.163C6.31607 16.6004 6 15.8373 6 15.0417V5.04169Z" fill="#47A0AC"/>
</svg>
