<svg width="25" height="26" viewBox="0 0 25 26" fill="none" xmlns="http://www.w3.org/2000/svg">
<path fill-rule="evenodd" clip-rule="evenodd" d="M16.6867 15.5427C18.0595 13.903 18.8858 11.7903 18.8858 9.48461C18.8858 4.26943 14.6581 0.041687 9.44292 0.041687C4.22774 0.041687 0 4.26943 0 9.48461C0 14.6998 4.22774 18.9275 9.44292 18.9275C11.6313 18.9275 13.6459 18.1831 15.2471 16.9336L22.4364 25.0342C22.803 25.4473 23.4351 25.4849 23.8481 25.1183C24.2612 24.7518 24.2989 24.1197 23.9323 23.7066L16.6867 15.5427ZM16.8858 9.48461C16.8858 13.5952 13.5535 16.9275 9.44292 16.9275C5.33231 16.9275 2 13.5952 2 9.48461C2 5.374 5.33231 2.04169 9.44292 2.04169C13.5535 2.04169 16.8858 5.374 16.8858 9.48461Z" fill="#47A0AC"/>
</svg>
