<svg width="26" height="31" viewBox="0 0 26 31" fill="none" xmlns="http://www.w3.org/2000/svg">
<path d="M22.9887 30.9815C22.9887 30.9815 25.4402 30.9815 25.4402 28.4812C25.4402 25.981 22.9887 18.4802 13.183 18.4802C3.37722 18.4802 0.925781 25.981 0.925781 28.4812C0.925781 30.9815 3.37722 30.9815 3.37722 30.9815H22.9887ZM3.43115 28.4812C3.41304 28.4787 3.39505 28.4753 3.37722 28.4712C3.37967 27.8112 3.78661 25.896 5.24032 24.1708C6.59351 22.5531 8.97141 20.9804 13.183 20.9804C17.3921 20.9804 19.77 22.5556 21.1257 24.1708C22.5794 25.896 22.9838 27.8137 22.9887 28.4712L22.9691 28.4762C22.9577 28.4782 22.9463 28.4799 22.9348 28.4812H3.43115ZM13.183 13.4796C14.4833 13.4796 15.7304 12.9528 16.6498 12.015C17.5693 11.0772 18.0859 9.8053 18.0859 8.47908C18.0859 7.15285 17.5693 5.88095 16.6498 4.94316C15.7304 4.00538 14.4833 3.47854 13.183 3.47854C11.8827 3.47854 10.6356 4.00538 9.71613 4.94316C8.79666 5.88095 8.2801 7.15285 8.2801 8.47908C8.2801 9.8053 8.79666 11.0772 9.71613 12.015C10.6356 12.9528 11.8827 13.4796 13.183 13.4796ZM20.5373 8.47908C20.5373 9.4641 20.3471 10.4395 19.9775 11.3495C19.6079 12.2596 19.0662 13.0864 18.3833 13.783C17.7004 14.4795 16.8896 15.032 15.9974 15.4089C15.1051 15.7859 14.1488 15.9799 13.183 15.9799C12.2172 15.9799 11.2609 15.7859 10.3686 15.4089C9.47634 15.032 8.66561 14.4795 7.98269 13.783C7.29978 13.0864 6.75807 12.2596 6.38848 11.3495C6.01889 10.4395 5.82866 9.4641 5.82866 8.47908C5.82866 6.48974 6.60349 4.58188 7.98269 3.17521C9.3619 1.76853 11.2325 0.978271 13.183 0.978271C15.1335 0.978271 17.0041 1.76853 18.3833 3.17521C19.7625 4.58188 20.5373 6.48974 20.5373 8.47908Z" fill="white"/>
</svg>
