<svg width="29" height="28" viewBox="0 0 29 28" fill="none" xmlns="http://www.w3.org/2000/svg">
<path d="M14.5 0.00697557C10.7753 -0.110309 7.15634 1.25535 4.4377 3.80407C1.71907 6.35279 0.123012 9.87623 0 13.6007C0.123012 17.3252 1.71907 20.8487 4.4377 23.3974C7.15634 25.9461 10.7753 27.3118 14.5 27.1945C18.2247 27.3118 21.8437 25.9461 24.5623 23.3974C27.2809 20.8487 28.877 17.3252 29 13.6007C28.877 9.87623 27.2809 6.35279 24.5623 3.80407C21.8437 1.25535 18.2247 -0.110309 14.5 0.00697557ZM26.6619 12.332L24.4325 11.7882C23.9794 11.6614 23.9431 11.6251 23.9069 11.5707C23.635 11.2082 23.3269 10.7189 23.0369 10.2476C23.0369 10.0845 22.8013 9.83073 22.7469 9.68573C22.6925 9.54073 23.3813 8.59823 23.6713 8.16323C23.9839 7.83821 24.3445 7.56313 24.7406 7.3476C25.7945 8.81864 26.4558 10.5342 26.6619 12.332ZM14.5 2.2726L14.3369 2.58073C14.3207 2.52139 14.3207 2.45881 14.3369 2.39948C14.3369 2.50823 14.065 2.67135 13.8837 2.8526L13.34 3.37823C13.092 3.63676 12.9419 3.97363 12.9154 4.33089C12.8889 4.68816 12.9878 5.04348 13.195 5.33573H12.9775C12.6913 5.344 12.4106 5.41674 12.1564 5.54855C11.9022 5.68035 11.6811 5.86782 11.5094 6.09698C11.309 6.37316 11.1725 6.69044 11.1098 7.02586C11.0471 7.36127 11.0598 7.70643 11.1469 8.03635V8.16323C10.8825 8.21035 10.622 8.27699 10.3675 8.3626L9.9325 8.5076L8.7725 8.88823C8.42687 8.98947 8.11178 9.17496 7.85554 9.42804C7.59929 9.68112 7.4099 9.99388 7.30438 10.3382C7.22007 10.6272 7.20907 10.9326 7.27236 11.2269C7.33564 11.5212 7.47123 11.7951 7.66687 12.0239C8.39281 12.8085 9.2367 13.475 10.1681 13.9995C11.0798 14.6069 12.1126 15.0089 13.195 15.1776H16.24C16.6067 15.1601 16.9718 15.2357 17.3014 15.3973C17.631 15.5589 17.9143 15.8013 18.125 16.102C18.2236 16.2037 18.2964 16.3275 18.3374 16.4631C18.3784 16.5986 18.3863 16.7421 18.3606 16.8814C18.3245 17.1122 18.2311 17.3304 18.0887 17.5157C17.1868 18.2534 16.5766 19.2877 16.3669 20.4339C16.1321 21.2858 15.8414 22.1213 15.4969 22.9351C15.2794 23.497 15.08 24.0407 14.935 24.4757C14.327 24.5195 13.7158 24.4706 13.1225 24.3307C13.2669 22.9841 12.9472 21.6284 12.2162 20.4882C11.6067 19.768 11.267 18.858 11.2556 17.9145C11.3728 17.0195 11.1695 16.1119 10.6819 15.3523C10.1943 14.5927 9.45376 14.03 8.59125 13.7639C6.56208 12.5027 4.78069 10.881 3.335 8.97885C4.38243 6.92857 5.98399 5.21321 7.95766 4.02773C9.93134 2.84224 12.198 2.23416 14.5 2.2726ZM2.26562 13.6007C2.26528 12.8943 2.33817 12.1897 2.48312 11.4982C3.97102 13.2791 5.77821 14.7666 7.81187 15.8845C8.89937 16.2832 9.0625 16.7001 9.0625 17.9145C9.06651 19.4295 9.62041 20.8915 10.6213 22.0289C10.8885 22.8151 10.9753 23.6514 10.875 24.4757C8.45264 23.8457 6.30168 22.4432 4.7481 20.4808C3.19451 18.5184 2.323 16.103 2.26562 13.6007ZM17.3456 24.6207C17.3456 24.3489 17.5631 24.0407 17.6719 23.7507C18.0839 22.8133 18.4173 21.8433 18.6688 20.8507C18.8107 20.236 19.1555 19.6869 19.6475 19.292C20.2818 18.6684 20.6517 17.8247 20.6806 16.9357C20.7028 16.5143 20.6387 16.0927 20.4923 15.6969C20.3458 15.301 20.12 14.9393 19.8287 14.6339C19.3928 14.099 18.8382 13.6731 18.209 13.39C17.5797 13.1068 16.8932 12.9742 16.2037 13.0026H13.3219C11.9683 12.6359 10.7242 11.9454 9.69687 10.9907L10.5487 10.7007L11.0381 10.5557C11.2537 10.4571 11.4903 10.4135 11.7269 10.4289L11.89 10.7007C12.0256 10.9551 12.2512 11.1499 12.5226 11.247C12.794 11.3442 13.0919 11.3368 13.3581 11.2264C13.6217 11.1034 13.8305 10.8872 13.9443 10.6195C14.0581 10.3518 14.0688 10.0515 13.9744 9.77635V9.4501C13.775 8.90635 13.5394 8.1451 13.3944 7.6376C13.8645 7.65732 14.331 7.54779 14.7433 7.3209C15.1555 7.09402 15.4976 6.75847 15.7325 6.35073C15.845 6.04702 15.8741 5.71871 15.8167 5.39995C15.7594 5.08119 15.6176 4.78363 15.4062 4.53823C15.6196 4.3468 15.8194 4.1409 16.0044 3.92198C16.1707 3.7229 16.2924 3.49043 16.3612 3.24028C16.43 2.99013 16.4443 2.72812 16.4031 2.47198C18.9365 2.84491 21.2955 3.98326 23.1637 5.73448C22.6152 6.06944 22.1304 6.49901 21.7319 7.00323C21.3001 7.63421 20.9125 8.29433 20.5719 8.97885C20.4257 9.40134 20.3889 9.854 20.4649 10.2946C20.541 10.7351 20.7274 11.1492 21.0069 11.4982C21.3331 12.0601 21.6956 12.6039 22.0219 13.057C22.4716 13.6238 23.1191 13.9993 23.8344 14.1082C24.2331 14.217 25.6469 14.507 26.6437 14.7064C26.3232 17.1229 25.2542 19.3785 23.5866 21.1565C21.9191 22.9346 19.7367 24.146 17.3456 24.6207Z" fill="white"/>
</svg>
