<?xml version="1.0" encoding="UTF-8"?>
<svg width="170pt" height="170pt" version="1.1" viewBox="0 0 700 300" xmlns="http://www.w3.org/2000/svg" xmlns:xlink="http://www.w3.org/1999/xlink">
 <g>
  <path d="m617.08 426.46h-534.15c-5.168 0-8.6172 3.4453-8.6172 8.6172v6.0312c0 28.43 23.262 51.691 51.691 51.691h448.86c28.43 0 51.691-23.262 51.691-51.691v-6.0312c-0.86328-4.3086-5.1719-8.6172-9.4766-8.6172z"/>
  <path d="m542.12 126.64h-384.25v215.38h384.25zm-203.32 187.82c-3.4453 3.4453-8.6172 3.4453-12.062 0-6.0312-6.0312-15.508-6.0312-21.539 0-3.4453 3.4453-8.6172 3.4453-12.062 0-3.4453-3.4453-3.4453-8.6172 0-12.062 12.922-12.922 33.602-12.922 45.66 0 3.4492 2.5859 3.4492 8.6172 0.003906 12.062zm37.906-38.77c-3.4453 3.4453-8.6172 3.4453-12.062 0-26.707-26.707-70.645-26.707-97.355 0-3.4453 3.4453-8.6172 3.4453-12.062 0-3.4453-3.4453-3.4453-8.6172 0-12.062 33.602-33.602 88.738-33.602 122.34 0 2.5859 3.4492 2.5859 9.4805-0.85938 12.062zm51.691 1.7227c-31.875 0-56.863-25.848-56.863-56.863v-4.3086c-47.383-24.125-105.11-15.508-143.02 22.398-3.4453 3.4453-8.6172 3.4453-12.062 0-3.4453-3.4453-3.4453-8.6172 0-12.062 42.215-42.215 105.97-52.555 159.38-27.57 8.6172-20.676 29.293-35.324 52.555-35.324 31.875 0 56.863 25.848 56.863 56.863 0.003907 31.023-24.98 56.867-56.859 56.867z"/>
  <path d="m428.4 180.06c-18.953 0-35.324 13.785-38.77 32.738-0.86328 2.5859-0.86328 5.168-0.86328 7.7539 0 21.539 18.094 39.629 39.629 39.629 21.539 0 39.629-18.094 39.629-39.629 0.007812-21.539-17.223-40.492-39.625-40.492zm24.125 63.754c-3.4453 3.4453-8.6172 3.4453-12.062 0l-12.062-11.199-12.062 12.062c-3.4453 3.4453-8.6172 3.4453-12.062 0-3.4453-3.4453-3.4453-8.6172 0-12.062l12.062-12.062-12.062-12.062c-3.4453-3.4453-3.4453-8.6172 0-12.062 3.4453-3.4453 8.6172-3.4453 12.062 0l12.062 12.062 12.062-12.062c3.4453-3.4453 8.6172-3.4453 12.062 0 3.4453 3.4453 3.4453 8.6172 0 12.062l-12.062 12.062 12.062 12.062c3.4453 2.582 3.4453 7.7539 0 11.199z"/>
  <path d="m107.05 401.48h485.91c5.168 0 8.6172-3.4453 8.6172-8.6172v-291.2c0-18.953-15.508-34.461-33.602-34.461h-435.08c-18.953 0-34.461 15.508-34.461 34.461v291.2c0 5.1719 4.3086 8.6172 8.6172 8.6172zm33.598-283.45c0-5.168 3.4453-8.6172 8.6172-8.6172h401.48c5.168 0 8.6172 3.4453 8.6172 8.6172v232.62c0 5.168-3.4453 8.6172-8.6172 8.6172l-401.48-0.003906c-5.168 0-8.6172-3.4453-8.6172-8.6172z"/>
  <use x="70" y="689.230469" xlink:href="#q"/>
  <use x="101.613281" y="689.230469" xlink:href="#d"/>
  <use x="122.859375" y="689.230469" xlink:href="#c"/>
  <use x="152.074219" y="689.230469" xlink:href="#i"/>
  <use x="181.140625" y="689.230469" xlink:href="#h"/>
  <use x="201.734375" y="689.230469" xlink:href="#c"/>
  <use x="230.949219" y="689.230469" xlink:href="#g"/>
  <use x="276.78125" y="689.230469" xlink:href="#b"/>
  <use x="307.617188" y="689.230469" xlink:href="#a"/>
  <use x="350.695312" y="689.230469" xlink:href="#f"/>
  <use x="382.265625" y="689.230469" xlink:href="#d"/>
  <use x="403.507812" y="689.230469" xlink:href="#e"/>
  <use x="433.105469" y="689.230469" xlink:href="#p"/>
  <use x="464.128906" y="689.230469" xlink:href="#a"/>
  <use x="492.207031" y="689.230469" xlink:href="#o"/>
  <use x="537.09375" y="689.230469" xlink:href="#b"/>
  <use x="567.929688" y="689.230469" xlink:href="#e"/>
  <use x="597.523438" y="689.230469" xlink:href="#n"/>
  <use x="612.289062" y="689.230469" xlink:href="#m"/>
  <use x="70" y="732.308594" xlink:href="#l"/>
  <use x="220.054688" y="732.308594" xlink:href="#k"/>
  <use x="519.320312" y="732.308594" xlink:href="#j"/>
 </g>
</svg>
